# xmcd CD database file
#
# Track frame offsets:
#	150
#	24860
#	36068
#	49389
#	65477
#	78560
#	90676
#	109812
#	120305
#	131361
#	168757
#	184439
#	197041
#	207527
#
# Disc length: 3011 seconds
#
# Revision: 2
# Processed by: cddbd v1.5.2PL0 Copyright (c) Steve Scherf et al.
# Submitted via: CDex 1.51
#
DISCID=be0bc10e
DTITLE=Various Artist - Blues Breakers CD2
DYEAR=2000
DGENRE=Blues
TTITLE0=Jimmy Witherspoon - C.C. Rider
TTITLE1=John Lee Hooker - Boom Boom
TTITLE2=Muddy Waters - Baby Please Don't Go
TTITLE3=B.B. King - It's My Own Fault Baby
TTITLE4=Elmore James - Standing At The Crossroads
TTITLE5=Lightning Slim - Rooster Blues
TTITLE6=John Mayall - John Lee Boogie
TTITLE7=Ray Charles - I'm Movin' On
TTITLE8=Canned Heat - Can't Hold On
TTITLE9=Eddy Wilson's Blues Band and Friends - Hoochy Coochy Man
TTITLE10=Mike Bloomfield - Don't You Lie To Me
TTITLE11=Eric Clapton - Freight Loader
TTITLE12=Johnny Winter - Out Of Sight
TTITLE13=Santana - With A Little Help From My Friends
EXTD=YEAR: 2000
EXTT0=
EXTT1=
EXTT2=
EXTT3=
EXTT4=
EXTT5=
EXTT6=
EXTT7=
EXTT8=
EXTT9=
EXTT10=
EXTT11=
EXTT12=
EXTT13=
PLAYORDER=
